<mxfile host="app.diagrams.net" modified="2023-06-29T01:57:41.667Z" agent="Mozilla/5.0 (Macintosh; Intel Mac OS X 10_15_7) AppleWebKit/537.36 (KHTML, like Gecko) Chrome/114.0.0.0 Safari/537.36" etag="VWB9h5n_lr3qOhkBds4u" version="21.5.0" type="github" pages="2">
  <diagram id="6HBG_Gn-5G_lx0AJyAGO" name="安防方案">
    <mxGraphModel dx="954" dy="532" grid="1" gridSize="10" guides="1" tooltips="1" connect="1" arrows="1" fold="1" page="1" pageScale="1" pageWidth="827" pageHeight="1169" math="0" shadow="0">
      <root>
        <mxCell id="0" />
        <mxCell id="1" parent="0" />
        <mxCell id="XsgthAcJhfMZehfX_VGC-4" value="" style="rounded=0;whiteSpace=wrap;html=1;" parent="1" vertex="1">
          <mxGeometry x="140" y="10" width="230" height="860" as="geometry" />
        </mxCell>
        <mxCell id="XsgthAcJhfMZehfX_VGC-5" value="开通服务" style="rounded=1;whiteSpace=wrap;html=1;" parent="1" vertex="1">
          <mxGeometry x="195" y="30" width="120" height="60" as="geometry" />
        </mxCell>
        <mxCell id="XsgthAcJhfMZehfX_VGC-36" style="edgeStyle=none;rounded=0;orthogonalLoop=1;jettySize=auto;html=1;exitX=1;exitY=0.3333333333333333;exitDx=0;exitDy=0;exitPerimeter=0;entryX=0;entryY=0.5;entryDx=0;entryDy=0;" parent="1" source="XsgthAcJhfMZehfX_VGC-8" target="XsgthAcJhfMZehfX_VGC-30" edge="1">
          <mxGeometry relative="1" as="geometry" />
        </mxCell>
        <mxCell id="XsgthAcJhfMZehfX_VGC-16" value="" style="line;strokeWidth=2;html=1;" parent="1" vertex="1">
          <mxGeometry x="140" y="240" width="230" height="10" as="geometry" />
        </mxCell>
        <mxCell id="XsgthAcJhfMZehfX_VGC-18" value="" style="shape=curlyBracket;whiteSpace=wrap;html=1;rounded=1;flipH=1;labelPosition=right;verticalLabelPosition=middle;align=left;verticalAlign=middle;" parent="1" vertex="1">
          <mxGeometry x="394" y="20" width="36" height="220" as="geometry" />
        </mxCell>
        <mxCell id="XsgthAcJhfMZehfX_VGC-21" value="&lt;span style=&quot;text-align: left;&quot;&gt;线下门店：BOSS系统&lt;/span&gt;" style="rounded=0;whiteSpace=wrap;html=1;" parent="1" vertex="1">
          <mxGeometry x="430" y="100" width="150" height="60" as="geometry" />
        </mxCell>
        <mxCell id="XsgthAcJhfMZehfX_VGC-22" style="rounded=0;orthogonalLoop=1;jettySize=auto;html=1;exitX=1;exitY=0.3333333333333333;exitDx=0;exitDy=0;exitPerimeter=0;entryX=0;entryY=0.5;entryDx=0;entryDy=0;" parent="1" source="XsgthAcJhfMZehfX_VGC-1" target="XsgthAcJhfMZehfX_VGC-5" edge="1">
          <mxGeometry relative="1" as="geometry" />
        </mxCell>
        <mxCell id="XsgthAcJhfMZehfX_VGC-23" style="edgeStyle=none;rounded=0;orthogonalLoop=1;jettySize=auto;html=1;exitX=1;exitY=0.3333333333333333;exitDx=0;exitDy=0;exitPerimeter=0;entryX=0;entryY=0.5;entryDx=0;entryDy=0;" parent="1" source="XsgthAcJhfMZehfX_VGC-2" target="XsgthAcJhfMZehfX_VGC-5" edge="1">
          <mxGeometry relative="1" as="geometry" />
        </mxCell>
        <mxCell id="XsgthAcJhfMZehfX_VGC-24" value="关闭服务" style="rounded=1;whiteSpace=wrap;html=1;" parent="1" vertex="1">
          <mxGeometry x="195" y="130" width="120" height="60" as="geometry" />
        </mxCell>
        <mxCell id="XsgthAcJhfMZehfX_VGC-25" style="edgeStyle=none;rounded=0;orthogonalLoop=1;jettySize=auto;html=1;exitX=1;exitY=0.3333333333333333;exitDx=0;exitDy=0;exitPerimeter=0;entryX=0;entryY=0.5;entryDx=0;entryDy=0;" parent="1" source="XsgthAcJhfMZehfX_VGC-1" target="XsgthAcJhfMZehfX_VGC-24" edge="1">
          <mxGeometry relative="1" as="geometry" />
        </mxCell>
        <mxCell id="XsgthAcJhfMZehfX_VGC-26" style="edgeStyle=none;rounded=0;orthogonalLoop=1;jettySize=auto;html=1;exitX=1;exitY=0.3333333333333333;exitDx=0;exitDy=0;exitPerimeter=0;" parent="1" source="XsgthAcJhfMZehfX_VGC-2" edge="1">
          <mxGeometry relative="1" as="geometry">
            <mxPoint x="190" y="160" as="targetPoint" />
          </mxGeometry>
        </mxCell>
        <mxCell id="XsgthAcJhfMZehfX_VGC-27" value="" style="line;strokeWidth=2;html=1;" parent="1" vertex="1">
          <mxGeometry x="140" y="600" width="230" height="10" as="geometry" />
        </mxCell>
        <mxCell id="XsgthAcJhfMZehfX_VGC-28" value="" style="shape=curlyBracket;whiteSpace=wrap;html=1;rounded=1;flipH=1;labelPosition=right;verticalLabelPosition=middle;align=left;verticalAlign=middle;" parent="1" vertex="1">
          <mxGeometry x="394" y="270" width="36" height="320" as="geometry" />
        </mxCell>
        <mxCell id="XsgthAcJhfMZehfX_VGC-29" value="&lt;div style=&quot;text-align: left;&quot;&gt;&lt;span style=&quot;background-color: initial;&quot;&gt;终端App&lt;/span&gt;&lt;/div&gt;" style="rounded=0;whiteSpace=wrap;html=1;" parent="1" vertex="1">
          <mxGeometry x="430" y="400" width="150" height="60" as="geometry" />
        </mxCell>
        <mxCell id="XsgthAcJhfMZehfX_VGC-30" value="设备安装" style="rounded=1;whiteSpace=wrap;html=1;" parent="1" vertex="1">
          <mxGeometry x="195" y="270" width="120" height="60" as="geometry" />
        </mxCell>
        <mxCell id="XsgthAcJhfMZehfX_VGC-31" value="实时监控" style="rounded=1;whiteSpace=wrap;html=1;" parent="1" vertex="1">
          <mxGeometry x="195" y="360" width="120" height="60" as="geometry" />
        </mxCell>
        <mxCell id="XsgthAcJhfMZehfX_VGC-32" value="告警推送/查询" style="rounded=1;whiteSpace=wrap;html=1;" parent="1" vertex="1">
          <mxGeometry x="195" y="440" width="120" height="60" as="geometry" />
        </mxCell>
        <mxCell id="XsgthAcJhfMZehfX_VGC-33" style="edgeStyle=none;rounded=0;orthogonalLoop=1;jettySize=auto;html=1;exitX=1;exitY=0.3333333333333333;exitDx=0;exitDy=0;exitPerimeter=0;entryX=0;entryY=0.5;entryDx=0;entryDy=0;" parent="1" source="XsgthAcJhfMZehfX_VGC-2" target="XsgthAcJhfMZehfX_VGC-30" edge="1">
          <mxGeometry relative="1" as="geometry" />
        </mxCell>
        <mxCell id="XsgthAcJhfMZehfX_VGC-34" style="edgeStyle=none;rounded=0;orthogonalLoop=1;jettySize=auto;html=1;exitX=1;exitY=0.3333333333333333;exitDx=0;exitDy=0;exitPerimeter=0;entryX=0;entryY=0.5;entryDx=0;entryDy=0;" parent="1" source="XsgthAcJhfMZehfX_VGC-2" target="XsgthAcJhfMZehfX_VGC-31" edge="1">
          <mxGeometry relative="1" as="geometry" />
        </mxCell>
        <mxCell id="XsgthAcJhfMZehfX_VGC-35" style="edgeStyle=none;rounded=0;orthogonalLoop=1;jettySize=auto;html=1;exitX=1;exitY=0.3333333333333333;exitDx=0;exitDy=0;exitPerimeter=0;entryX=0;entryY=0.5;entryDx=0;entryDy=0;" parent="1" source="XsgthAcJhfMZehfX_VGC-2" target="XsgthAcJhfMZehfX_VGC-32" edge="1">
          <mxGeometry relative="1" as="geometry" />
        </mxCell>
        <mxCell id="XsgthAcJhfMZehfX_VGC-40" style="edgeStyle=none;rounded=0;orthogonalLoop=1;jettySize=auto;html=1;exitX=1;exitY=0.3333333333333333;exitDx=0;exitDy=0;exitPerimeter=0;entryX=0;entryY=0.5;entryDx=0;entryDy=0;" parent="1" source="XsgthAcJhfMZehfX_VGC-2" target="XsgthAcJhfMZehfX_VGC-39" edge="1">
          <mxGeometry relative="1" as="geometry" />
        </mxCell>
        <mxCell id="XsgthAcJhfMZehfX_VGC-2" value="终端客户" style="shape=umlActor;verticalLabelPosition=bottom;verticalAlign=top;html=1;" parent="1" vertex="1">
          <mxGeometry x="50" y="345" width="30" height="60" as="geometry" />
        </mxCell>
        <mxCell id="XsgthAcJhfMZehfX_VGC-1" value="运营商" style="shape=umlActor;verticalLabelPosition=bottom;verticalAlign=top;html=1;" parent="1" vertex="1">
          <mxGeometry x="50" y="160" width="30" height="60" as="geometry" />
        </mxCell>
        <mxCell id="XsgthAcJhfMZehfX_VGC-44" style="edgeStyle=none;rounded=0;orthogonalLoop=1;jettySize=auto;html=1;exitX=1;exitY=0.3333333333333333;exitDx=0;exitDy=0;exitPerimeter=0;entryX=0;entryY=0.5;entryDx=0;entryDy=0;" parent="1" source="XsgthAcJhfMZehfX_VGC-8" target="XsgthAcJhfMZehfX_VGC-42" edge="1">
          <mxGeometry relative="1" as="geometry" />
        </mxCell>
        <mxCell id="XsgthAcJhfMZehfX_VGC-45" style="edgeStyle=none;rounded=0;orthogonalLoop=1;jettySize=auto;html=1;exitX=1;exitY=0.3333333333333333;exitDx=0;exitDy=0;exitPerimeter=0;entryX=0;entryY=0.5;entryDx=0;entryDy=0;" parent="1" source="XsgthAcJhfMZehfX_VGC-8" target="XsgthAcJhfMZehfX_VGC-43" edge="1">
          <mxGeometry relative="1" as="geometry" />
        </mxCell>
        <mxCell id="XsgthAcJhfMZehfX_VGC-8" value="安保公司" style="shape=umlActor;verticalLabelPosition=bottom;verticalAlign=top;html=1;" parent="1" vertex="1">
          <mxGeometry x="50" y="700" width="30" height="60" as="geometry" />
        </mxCell>
        <mxCell id="XsgthAcJhfMZehfX_VGC-37" value="" style="shape=curlyBracket;whiteSpace=wrap;html=1;rounded=1;flipH=1;labelPosition=right;verticalLabelPosition=middle;align=left;verticalAlign=middle;" parent="1" vertex="1">
          <mxGeometry x="394" y="620" width="36" height="220" as="geometry" />
        </mxCell>
        <mxCell id="XsgthAcJhfMZehfX_VGC-38" value="&lt;div style=&quot;text-align: left;&quot;&gt;&lt;span style=&quot;background-color: initial;&quot;&gt;值守SaaS&lt;/span&gt;&lt;/div&gt;" style="rounded=0;whiteSpace=wrap;html=1;" parent="1" vertex="1">
          <mxGeometry x="430" y="700" width="150" height="60" as="geometry" />
        </mxCell>
        <mxCell id="XsgthAcJhfMZehfX_VGC-39" value="告警处理" style="rounded=1;whiteSpace=wrap;html=1;" parent="1" vertex="1">
          <mxGeometry x="195" y="525" width="120" height="60" as="geometry" />
        </mxCell>
        <mxCell id="XsgthAcJhfMZehfX_VGC-42" value="告警查询" style="rounded=1;whiteSpace=wrap;html=1;" parent="1" vertex="1">
          <mxGeometry x="195" y="640" width="120" height="60" as="geometry" />
        </mxCell>
        <mxCell id="XsgthAcJhfMZehfX_VGC-43" value="告警处理" style="rounded=1;whiteSpace=wrap;html=1;" parent="1" vertex="1">
          <mxGeometry x="195" y="725" width="120" height="60" as="geometry" />
        </mxCell>
      </root>
    </mxGraphModel>
  </diagram>
  <diagram id="JvmMMnYC_o9BV_jT9dVo" name="第 2 页">
    <mxGraphModel dx="1735" dy="2136" grid="1" gridSize="10" guides="1" tooltips="1" connect="1" arrows="1" fold="1" page="1" pageScale="1" pageWidth="827" pageHeight="1169" math="0" shadow="0">
      <root>
        <mxCell id="0" />
        <mxCell id="1" parent="0" />
        <mxCell id="gkf2U2a-0lNHwdwhKLFo-2" value="" style="rounded=0;whiteSpace=wrap;html=1;" vertex="1" parent="1">
          <mxGeometry x="60" y="20" width="1310" height="730" as="geometry" />
        </mxCell>
        <mxCell id="gkf2U2a-0lNHwdwhKLFo-3" value="" style="rounded=0;whiteSpace=wrap;html=1;" vertex="1" parent="1">
          <mxGeometry x="60" y="20" width="420" height="50" as="geometry" />
        </mxCell>
        <mxCell id="gkf2U2a-0lNHwdwhKLFo-6" value="&lt;font style=&quot;font-size: 60px;&quot;&gt;柱子&lt;/font&gt;" style="rounded=0;whiteSpace=wrap;html=1;fillColor=#f5f5f5;fontColor=#333333;strokeColor=#666666;" vertex="1" parent="1">
          <mxGeometry x="1150" y="70" width="220" height="150" as="geometry" />
        </mxCell>
        <mxCell id="gkf2U2a-0lNHwdwhKLFo-7" value="&lt;font style=&quot;font-size: 29px;&quot;&gt;墙&lt;/font&gt;" style="rounded=0;whiteSpace=wrap;html=1;fillColor=#f5f5f5;fontColor=#333333;strokeColor=#666666;" vertex="1" parent="1">
          <mxGeometry x="480" y="20" width="890" height="50" as="geometry" />
        </mxCell>
        <mxCell id="gkf2U2a-0lNHwdwhKLFo-9" value="&lt;font style=&quot;font-size: 34px;&quot;&gt;地漏&lt;/font&gt;" style="ellipse;whiteSpace=wrap;html=1;aspect=fixed;" vertex="1" parent="1">
          <mxGeometry x="1231" y="360" width="80" height="80" as="geometry" />
        </mxCell>
        <mxCell id="gkf2U2a-0lNHwdwhKLFo-13" value="" style="shape=partialRectangle;whiteSpace=wrap;html=1;top=0;bottom=0;fillColor=none;" vertex="1" parent="1">
          <mxGeometry x="60" y="-40" width="420" height="60" as="geometry" />
        </mxCell>
        <mxCell id="gkf2U2a-0lNHwdwhKLFo-14" style="edgeStyle=orthogonalEdgeStyle;rounded=0;orthogonalLoop=1;jettySize=auto;html=1;exitX=0;exitY=0.5;exitDx=0;exitDy=0;entryX=1;entryY=0.5;entryDx=0;entryDy=0;startArrow=classicThin;startFill=1;" edge="1" parent="1" source="gkf2U2a-0lNHwdwhKLFo-13" target="gkf2U2a-0lNHwdwhKLFo-13">
          <mxGeometry relative="1" as="geometry">
            <Array as="points">
              <mxPoint x="250" y="-10" />
              <mxPoint x="250" y="-10" />
            </Array>
          </mxGeometry>
        </mxCell>
        <mxCell id="gkf2U2a-0lNHwdwhKLFo-15" value="425" style="edgeLabel;html=1;align=center;verticalAlign=middle;resizable=0;points=[];fontSize=22;" vertex="1" connectable="0" parent="gkf2U2a-0lNHwdwhKLFo-14">
          <mxGeometry x="0.0022" y="-2" relative="1" as="geometry">
            <mxPoint as="offset" />
          </mxGeometry>
        </mxCell>
        <mxCell id="gkf2U2a-0lNHwdwhKLFo-17" value="&lt;font style=&quot;font-size: 21px;&quot;&gt;上空&lt;/font&gt;" style="rounded=0;whiteSpace=wrap;html=1;" vertex="1" parent="1">
          <mxGeometry x="10" y="20" width="50" height="730" as="geometry" />
        </mxCell>
        <mxCell id="gkf2U2a-0lNHwdwhKLFo-18" value="" style="shape=partialRectangle;whiteSpace=wrap;html=1;top=0;bottom=0;fillColor=none;" vertex="1" parent="1">
          <mxGeometry x="10" y="-40" width="50" height="60" as="geometry" />
        </mxCell>
        <mxCell id="gkf2U2a-0lNHwdwhKLFo-21" style="edgeStyle=orthogonalEdgeStyle;rounded=0;orthogonalLoop=1;jettySize=auto;html=1;exitX=0;exitY=0.5;exitDx=0;exitDy=0;entryX=1;entryY=0.5;entryDx=0;entryDy=0;startArrow=classicThin;startFill=1;" edge="1" parent="1" source="gkf2U2a-0lNHwdwhKLFo-18" target="gkf2U2a-0lNHwdwhKLFo-18">
          <mxGeometry relative="1" as="geometry">
            <Array as="points">
              <mxPoint x="40" y="-10" />
              <mxPoint x="40" y="-10" />
            </Array>
          </mxGeometry>
        </mxCell>
        <mxCell id="gkf2U2a-0lNHwdwhKLFo-22" value="50" style="edgeLabel;html=1;align=center;verticalAlign=middle;resizable=0;points=[];fontSize=17;" vertex="1" connectable="0" parent="gkf2U2a-0lNHwdwhKLFo-21">
          <mxGeometry x="-0.1507" relative="1" as="geometry">
            <mxPoint as="offset" />
          </mxGeometry>
        </mxCell>
        <mxCell id="gkf2U2a-0lNHwdwhKLFo-23" value="" style="shape=partialRectangle;whiteSpace=wrap;html=1;top=0;bottom=0;fillColor=none;direction=south;" vertex="1" parent="1">
          <mxGeometry x="1370" y="20" width="60" height="50" as="geometry" />
        </mxCell>
        <mxCell id="gkf2U2a-0lNHwdwhKLFo-24" style="edgeStyle=orthogonalEdgeStyle;rounded=0;orthogonalLoop=1;jettySize=auto;html=1;exitX=0;exitY=0.5;exitDx=0;exitDy=0;entryX=1;entryY=0.5;entryDx=0;entryDy=0;startArrow=classicThin;startFill=1;" edge="1" parent="1" source="gkf2U2a-0lNHwdwhKLFo-23" target="gkf2U2a-0lNHwdwhKLFo-23">
          <mxGeometry relative="1" as="geometry">
            <Array as="points">
              <mxPoint x="1405" y="45" />
              <mxPoint x="1405" y="45" />
            </Array>
          </mxGeometry>
        </mxCell>
        <mxCell id="gkf2U2a-0lNHwdwhKLFo-25" value="50" style="edgeLabel;html=1;align=center;verticalAlign=middle;resizable=0;points=[];fontSize=18;" vertex="1" connectable="0" parent="gkf2U2a-0lNHwdwhKLFo-24">
          <mxGeometry x="-0.1507" relative="1" as="geometry">
            <mxPoint as="offset" />
          </mxGeometry>
        </mxCell>
        <mxCell id="gkf2U2a-0lNHwdwhKLFo-26" value="" style="shape=partialRectangle;whiteSpace=wrap;html=1;top=0;bottom=0;fillColor=none;" vertex="1" parent="1">
          <mxGeometry x="480" y="-40" width="670" height="60" as="geometry" />
        </mxCell>
        <mxCell id="gkf2U2a-0lNHwdwhKLFo-27" style="edgeStyle=orthogonalEdgeStyle;rounded=0;orthogonalLoop=1;jettySize=auto;html=1;exitX=0;exitY=0.5;exitDx=0;exitDy=0;entryX=1;entryY=0.5;entryDx=0;entryDy=0;startArrow=classicThin;startFill=1;" edge="1" parent="1" source="gkf2U2a-0lNHwdwhKLFo-26" target="gkf2U2a-0lNHwdwhKLFo-26">
          <mxGeometry relative="1" as="geometry">
            <Array as="points">
              <mxPoint x="670" y="-10" />
              <mxPoint x="670" y="-10" />
            </Array>
          </mxGeometry>
        </mxCell>
        <mxCell id="gkf2U2a-0lNHwdwhKLFo-28" value="665" style="edgeLabel;html=1;align=center;verticalAlign=middle;resizable=0;points=[];fontSize=22;" vertex="1" connectable="0" parent="gkf2U2a-0lNHwdwhKLFo-27">
          <mxGeometry x="0.0022" y="-2" relative="1" as="geometry">
            <mxPoint as="offset" />
          </mxGeometry>
        </mxCell>
        <mxCell id="gkf2U2a-0lNHwdwhKLFo-29" value="" style="shape=partialRectangle;whiteSpace=wrap;html=1;top=0;bottom=0;fillColor=none;" vertex="1" parent="1">
          <mxGeometry x="1150" y="-40" width="220" height="60" as="geometry" />
        </mxCell>
        <mxCell id="gkf2U2a-0lNHwdwhKLFo-30" style="edgeStyle=orthogonalEdgeStyle;rounded=0;orthogonalLoop=1;jettySize=auto;html=1;exitX=0;exitY=0.5;exitDx=0;exitDy=0;entryX=1;entryY=0.5;entryDx=0;entryDy=0;startArrow=classicThin;startFill=1;" edge="1" parent="1" source="gkf2U2a-0lNHwdwhKLFo-29" target="gkf2U2a-0lNHwdwhKLFo-29">
          <mxGeometry relative="1" as="geometry">
            <Array as="points">
              <mxPoint x="1340" y="-10" />
              <mxPoint x="1340" y="-10" />
            </Array>
          </mxGeometry>
        </mxCell>
        <mxCell id="gkf2U2a-0lNHwdwhKLFo-31" value="220" style="edgeLabel;html=1;align=center;verticalAlign=middle;resizable=0;points=[];fontSize=22;" vertex="1" connectable="0" parent="gkf2U2a-0lNHwdwhKLFo-30">
          <mxGeometry x="0.0022" y="-2" relative="1" as="geometry">
            <mxPoint as="offset" />
          </mxGeometry>
        </mxCell>
        <mxCell id="gkf2U2a-0lNHwdwhKLFo-36" value="" style="shape=partialRectangle;whiteSpace=wrap;html=1;top=0;bottom=0;fillColor=none;direction=south;" vertex="1" parent="1">
          <mxGeometry x="1370" y="70" width="60" height="150" as="geometry" />
        </mxCell>
        <mxCell id="gkf2U2a-0lNHwdwhKLFo-40" style="edgeStyle=orthogonalEdgeStyle;rounded=0;orthogonalLoop=1;jettySize=auto;html=1;exitX=1;exitY=0.5;exitDx=0;exitDy=0;entryX=0;entryY=0.5;entryDx=0;entryDy=0;startArrow=classicThin;startFill=1;" edge="1" parent="1" source="gkf2U2a-0lNHwdwhKLFo-36" target="gkf2U2a-0lNHwdwhKLFo-36">
          <mxGeometry relative="1" as="geometry">
            <Array as="points">
              <mxPoint x="1400" y="140" />
              <mxPoint x="1400" y="140" />
            </Array>
          </mxGeometry>
        </mxCell>
        <mxCell id="gkf2U2a-0lNHwdwhKLFo-41" value="150" style="edgeLabel;html=1;align=center;verticalAlign=middle;resizable=0;points=[];fontSize=22;" vertex="1" connectable="0" parent="gkf2U2a-0lNHwdwhKLFo-40">
          <mxGeometry x="-0.1419" relative="1" as="geometry">
            <mxPoint as="offset" />
          </mxGeometry>
        </mxCell>
        <mxCell id="gkf2U2a-0lNHwdwhKLFo-42" value="" style="shape=partialRectangle;whiteSpace=wrap;html=1;top=0;bottom=0;fillColor=none;direction=south;" vertex="1" parent="1">
          <mxGeometry x="1370" y="220" width="60" height="530" as="geometry" />
        </mxCell>
        <mxCell id="gkf2U2a-0lNHwdwhKLFo-44" style="edgeStyle=orthogonalEdgeStyle;rounded=0;orthogonalLoop=1;jettySize=auto;html=1;exitX=1;exitY=0.5;exitDx=0;exitDy=0;entryX=0;entryY=0.5;entryDx=0;entryDy=0;startArrow=classic;startFill=1;" edge="1" parent="1" source="gkf2U2a-0lNHwdwhKLFo-42" target="gkf2U2a-0lNHwdwhKLFo-42">
          <mxGeometry relative="1" as="geometry">
            <Array as="points">
              <mxPoint x="1400" y="480" />
              <mxPoint x="1400" y="480" />
            </Array>
          </mxGeometry>
        </mxCell>
        <mxCell id="gkf2U2a-0lNHwdwhKLFo-45" value="530" style="edgeLabel;html=1;align=center;verticalAlign=middle;resizable=0;points=[];fontSize=21;" vertex="1" connectable="0" parent="gkf2U2a-0lNHwdwhKLFo-44">
          <mxGeometry x="0.1444" y="1" relative="1" as="geometry">
            <mxPoint as="offset" />
          </mxGeometry>
        </mxCell>
      </root>
    </mxGraphModel>
  </diagram>
</mxfile>
